<svg width="64" height="52" xmlns="http://www.w3.org/2000/svg" xmlns:xlink="http://www.w3.org/1999/xlink"><defs><filter x="-50%" y="-50%" width="200%" height="200%" filterUnits="objectBoundingBox" id="a"><feOffset dx="1" dy="1" in="SourceAlpha" result="shadowOffsetOuter1"/><feColorMatrix values="0 0 0 0 0.611764706 0 0 0 0 0.815686275 0 0 0 0 0.811764706 0 0 0 1 0" in="shadowOffsetOuter1"/></filter><path d="M4 9h54v34c0 1.105-.892 2-2.002 2H6.002A1.997 1.997 0 014 43V9z" id="b"/></defs><g fill="none" fill-rule="evenodd"><path d="M0 2.001C0 .896.904 0 1.992 0h16.84c.55 0 1.268.36 1.602.803l2.557 3.394c.334.443 1.059.803 1.604.803h37.401C63.103 5 64 5.898 64 7.002v38.996A2.008 2.008 0 0161.997 48H2.003A2.002 2.002 0 010 45.999V2z" fill="#DCF0EE"/><use fill="#000" filter="url(#a)" xlink:href="#b"/><use fill="#F0F7F7" xlink:href="#b"/><path d="M0 13h64v36.999A2.007 2.007 0 0161.997 52H2.003A1.997 1.997 0 010 49.999V13z" fill="#C4E8E5"/><text font-family="Roboto, Arial, sans-serif" font-size="10" font-weight="bold" fill="#007479"><tspan x="15.914" y="34.3">Project</tspan></text></g></svg>